<svg viewBox="0 0 200 200" xmlns="http://www.w3.org/2000/svg">
  <!-- Fondo blanco -->
  <rect width="200" height="200" fill="white"/>
  
  <!-- Borde del QR -->
  <rect x="5" y="5" width="190" height="190" fill="none" stroke="#333" stroke-width="2"/>
  
  <!-- Esquinas del QR -->
  <!-- Esquina superior izquierda -->
  <rect x="20" y="20" width="40" height="40" fill="#333"/>
  <rect x="25" y="25" width="30" height="30" fill="white"/>
  <rect x="30" y="30" width="20" height="20" fill="#333"/>
  
  <!-- Esquina superior derecha -->
  <rect x="140" y="20" width="40" height="40" fill="#333"/>
  <rect x="145" y="25" width="30" height="30" fill="white"/>
  <rect x="150" y="30" width="20" height="20" fill="#333"/>
  
  <!-- Esquina inferior izquierda -->
  <rect x="20" y="140" width="40" height="40" fill="#333"/>
  <rect x="25" y="145" width="30" height="30" fill="white"/>
  <rect x="30" y="150" width="20" height="20" fill="#333"/>
  
  <!-- Patrón del QR -->
  <!-- Fila 1 -->
  <rect x="70" y="20" width="10" height="10" fill="#333"/>
  <rect x="90" y="20" width="10" height="10" fill="#333"/>
  <rect x="110" y="20" width="10" height="10" fill="#333"/>
  
  <!-- Fila 2 -->
  <rect x="80" y="30" width="10" height="10" fill="#333"/>
  <rect x="100" y="30" width="10" height="10" fill="#333"/>
  <rect x="120" y="30" width="10" height="10" fill="#333"/>
  
  <!-- Fila 3 -->
  <rect x="70" y="40" width="10" height="10" fill="#333"/>
  <rect x="90" y="40" width="10" height="10" fill="#333"/>
  <rect x="110" y="40" width="10" height="10" fill="#333"/>
  
  <!-- Centro del QR -->
  <rect x="70" y="70" width="60" height="60" fill="#333"/>
  <rect x="80" y="80" width="40" height="40" fill="white"/>
  <text x="100" y="105" font-family="Arial" font-size="14" text-anchor="middle" fill="#333">QR</text>
  
  <!-- Patrón adicional -->
  <rect x="20" y="70" width="10" height="10" fill="#333"/>
  <rect x="30" y="80" width="10" height="10" fill="#333"/>
  <rect x="40" y="90" width="10" height="10" fill="#333"/>
  <rect x="50" y="100" width="10" height="10" fill="#333"/>
  
  <rect x="170" y="70" width="10" height="10" fill="#333"/>
  <rect x="160" y="80" width="10" height="10" fill="#333"/>
  <rect x="150" y="90" width="10" height="10" fill="#333"/>
  <rect x="140" y="100" width="10" height="10" fill="#333"/>
  
  <rect x="70" y="150" width="10" height="10" fill="#333"/>
  <rect x="80" y="160" width="10" height="10" fill="#333"/>
  <rect x="90" y="170" width="10" height="10" fill="#333"/>
  
  <rect x="110" y="150" width="10" height="10" fill="#333"/>
  <rect x="120" y="160" width="10" height="10" fill="#333"/>
  <rect x="130" y="170" width="10" height="10" fill="#333"/>
  
  <!-- Texto en la parte inferior -->
  <text x="100" y="190" font-family="Arial" font-size="8" text-anchor="middle" fill="#333">ESCANEAME PARA DONAR</text>
</svg>